<svg width="390" height="136" viewBox="0 0 390 136" fill="none" xmlns="http://www.w3.org/2000/svg">
<g clip-path="url(#clip0_787_1003)">
<g clip-path="url(#clip1_787_1003)">
<path d="M390 183H-2V-24H390V183ZM-1.58324 182.378H389.583V-23.3777H-1.58324V182.378Z" fill="#EF3897" fill-opacity="0.3"/>
<path d="M374.938 182.689H374.521C374.521 164.337 374.451 146.091 374.376 128.977C374.338 120.464 375.209 112.019 376.072 103.842C376.905 95.845 377.768 87.5745 377.768 79.2542C377.768 71.1641 376.901 63.1052 376.063 55.3325C375.301 48.2381 374.509 40.8948 374.396 33.508C374.184 21.5347 374.301 9.30619 374.396 -2.51775C374.463 -9.46277 374.53 -16.6443 374.53 -23.6764H374.946C374.946 -16.6318 374.88 -9.4441 374.813 -2.51775C374.705 9.30619 374.588 21.516 374.813 33.4768C374.947 40.8264 375.734 48.1448 376.48 55.2205C377.314 63.018 378.189 71.077 378.189 79.2417C378.189 87.6056 377.322 95.9011 376.489 103.929C375.655 112.075 374.759 120.501 374.796 128.958C374.867 146.091 374.938 164.337 374.938 182.689Z" fill="#EF3897" fill-opacity="0.3"/>
<path d="M359.877 182.689H359.46C359.46 176.547 359.368 170.243 359.277 164.15C359.106 152.563 358.931 140.577 359.377 128.952C359.714 120.097 362.294 112.231 364.819 104.626C367.487 96.5358 370.237 88.1719 370.237 78.6817C370.237 69.4465 367.508 61.4996 364.878 53.8203C362.698 47.454 360.443 40.8699 359.689 33.5142C358.401 21.0057 358.772 7.37703 359.131 -5.77245C359.293 -11.7218 359.46 -17.8764 359.46 -23.6888H359.877C359.877 -17.8578 359.71 -11.7031 359.547 -5.74133C359.189 7.38947 358.818 20.9683 360.098 33.4208C360.844 40.677 363.082 47.2175 365.249 53.534C367.903 61.2818 370.646 69.2972 370.667 78.6754C370.667 88.3213 367.895 96.7225 365.203 104.906C362.702 112.455 360.139 120.258 359.806 128.989C359.36 140.589 359.535 152.556 359.706 164.138C359.785 170.236 359.877 176.54 359.877 182.689Z" fill="#EF3897" fill-opacity="0.3"/>
<path d="M344.819 182.689H344.402C344.402 177.144 344.215 171.487 344.015 165.451C343.598 153.129 343.181 140.39 344.49 128.902C345.569 119.375 350.287 112.013 354.85 104.893C360.135 96.6478 365.132 88.8565 365.086 77.9224C365.04 67.48 359.91 60.0123 354.942 52.7436C350.991 46.9748 346.903 41.013 345.281 33.5142C342.743 21.7649 343.381 6.25064 343.939 -7.43402C344.177 -13.2153 344.402 -18.6792 344.402 -23.6888H344.819C344.819 -18.6606 344.594 -13.1904 344.356 -7.39669C343.769 6.91651 343.164 21.6902 345.682 33.3275C347.269 40.677 351.32 46.5828 355.234 52.3018C360.26 59.6327 365.457 67.2373 365.503 77.9224C365.548 89.1241 360.264 97.3511 355.15 105.304C350.633 112.355 345.961 119.649 344.898 128.989C343.606 140.409 344.023 153.117 344.431 165.401C344.627 171.444 344.819 177.132 344.819 182.689Z" fill="#EF3897" fill-opacity="0.3"/>
<path d="M329.741 182.689H329.324C329.324 177.636 329.074 172.11 328.807 166.285C328.219 153.247 327.607 139.762 329.607 128.859C331.449 118.833 338.384 111.745 345.094 104.887C353.012 96.7972 360.485 89.1614 360.372 77.1383C360.268 65.7998 352.537 58.6681 345.061 51.7728C339.284 46.4458 333.312 40.9384 330.92 33.5017C327.415 22.6175 328.174 5.95815 328.836 -8.74089C329.082 -14.1488 329.316 -19.2642 329.316 -23.6764H329.732C329.732 -19.2331 329.499 -14.1052 329.253 -8.68488C328.586 5.93948 327.832 22.5117 331.287 33.2466C333.629 40.5152 339.547 45.9729 345.273 51.2563C352.846 58.2387 360.673 65.4637 360.781 77.1445C360.898 89.4975 352.979 97.5938 345.319 105.416C338.676 112.206 331.804 119.225 330.003 129.033C328.019 139.836 328.628 153.266 329.216 166.254C329.507 172.091 329.741 177.629 329.741 182.689Z" fill="#EF3897" fill-opacity="0.3"/>
<path d="M314.696 182.689H314.279V150.665C314.279 148.86 314.195 146.862 314.112 144.74C313.895 139.432 313.649 133.408 314.691 128.834C317.017 118.64 325.806 111.054 332.87 104.962C334.921 103.195 336.855 101.527 338.43 99.9834C339.18 99.2367 340.097 98.4028 341.043 97.4942C346.344 92.609 354.379 85.2222 354.238 76.4476C354.096 67.6729 346.507 61.7112 340.947 57.3674C340.039 56.6518 339.184 55.9859 338.447 55.3636C336.817 53.9945 334.942 52.6379 332.958 51.2003C326.707 46.6574 319.622 41.5171 316.421 33.4706C312.312 23.134 313.112 5.79635 313.82 -9.5001C314.054 -14.6653 314.279 -19.5567 314.279 -23.6888H314.696C314.696 -19.5318 314.471 -14.6342 314.229 -9.4441C313.529 5.76524 312.733 22.9971 316.775 33.1657C319.905 41.0504 326.936 46.1534 333.137 50.6527C335.125 52.0964 337.005 53.4593 338.647 54.8346C339.38 55.4569 340.235 56.1166 341.147 56.826C346.799 61.2444 354.538 67.2996 354.659 76.4476C354.779 85.5956 346.649 93.0758 341.264 98.0356C340.31 98.9193 339.409 99.747 338.663 100.488C337.08 102.056 335.138 103.73 333.083 105.503C326.081 111.546 317.363 119.064 315.091 129.033C314.075 133.495 314.316 139.451 314.533 144.703C314.616 146.831 314.7 148.841 314.7 150.665L314.696 182.689Z" fill="#EF3897" fill-opacity="0.3"/>
<path d="M299.634 182.689H299.217V150.665C299.217 148.872 299.13 146.85 299.038 144.703C298.805 139.363 298.542 133.315 299.601 128.834C302.135 118.093 312.316 110.563 320.501 104.52C322.818 102.803 325.011 101.185 326.715 99.7034C327.519 99.0064 328.49 98.2285 329.632 97.3324C335.696 92.5032 344.865 85.2097 344.727 76.0431C344.59 66.8764 335.559 60.9457 329.57 57.0314C328.532 56.3531 327.549 55.7121 326.74 55.1333C324.936 53.8389 322.789 52.5445 320.514 51.1816C313.275 46.8255 305.073 41.9092 301.501 33.4831C297.234 23.4078 298.038 5.87103 298.755 -9.6868C298.992 -14.8147 299.217 -19.6438 299.217 -23.7137H299.634C299.634 -19.6376 299.409 -14.7835 299.171 -9.64324C298.484 5.02468 297.65 23.246 301.843 33.1532C305.339 41.4051 313.475 46.2903 320.655 50.578C322.935 51.9471 325.09 53.2415 326.907 54.5421C327.707 55.1209 328.686 55.7868 329.72 56.4402C335.796 60.4168 344.978 66.3972 345.14 75.9995C345.303 85.6018 335.992 92.9949 329.816 97.8862C328.691 98.7762 327.732 99.5478 326.923 100.245C325.206 101.732 323.01 103.356 320.672 105.074C312.558 111.073 302.46 118.535 299.98 129.039C298.951 133.395 299.209 139.382 299.442 144.666C299.534 146.819 299.622 148.854 299.622 150.665L299.634 182.689Z" fill="#EF3897" fill-opacity="0.3"/>
<path d="M284.155 182.695C284.155 173.124 284.155 163.553 284.155 153.982V150.329C284.155 148.549 284.076 146.557 283.989 144.454C283.768 139.058 283.518 132.947 284.635 128.398C287.223 117.819 297.1 110.382 305.056 104.389C307.319 102.678 309.461 101.066 311.153 99.5727C311.945 98.8757 312.899 98.104 314 97.2079C319.955 92.3788 328.949 85.0852 328.811 76.0057C328.674 66.9261 319.793 60.9893 313.904 57.0936C312.904 56.4277 311.953 55.7992 311.166 55.2267C309.386 53.9447 307.306 52.6814 305.102 51.3372C298.109 47.0806 290.178 42.2514 286.589 33.9685C282.163 23.7625 283.014 5.13669 283.697 -9.82993C283.926 -14.8956 284.143 -19.6811 284.147 -23.6951H284.564C284.564 -19.6625 284.343 -14.8644 284.11 -9.78637C283.434 5.08691 282.588 23.5945 286.939 33.6262C290.457 41.7474 298.321 46.5392 305.277 50.7585C307.486 52.1089 309.574 53.3784 311.362 54.6666C312.145 55.2329 313.091 55.8614 314.091 56.5335C320.068 60.4977 329.095 66.4905 329.24 76.0057C329.386 85.5209 320.255 92.8704 314.212 97.7867C313.112 98.6766 312.166 99.4482 311.374 100.139C309.674 101.639 307.527 103.251 305.256 104.981C297.383 110.917 287.585 118.311 285.056 128.628C283.968 133.053 284.222 139.096 284.435 144.429C284.522 146.545 284.606 148.543 284.601 150.341V153.982C284.601 163.553 284.601 173.124 284.601 182.695H284.155Z" fill="#EF3897" fill-opacity="0.3"/>
<path d="M269.511 182.701H269.094C269.094 172.813 269.152 162.787 269.207 153.042V148.487C269.207 146.62 269.148 144.529 269.073 142.344C268.886 136.837 268.656 130.595 269.79 125.766C271.961 116.394 279.321 109.212 285.235 103.443C286.948 101.776 288.569 100.195 289.949 98.6828C290.599 97.9734 291.341 97.2017 292.128 96.3865C296.971 91.3706 303.606 84.5003 303.489 76.2173C303.335 65.2148 294.829 58.8423 286.602 52.6814C280.455 48.0701 274.099 43.3094 271.461 36.6444C268.961 30.3653 269.098 23.078 269.207 16.0272C269.236 14.2536 269.265 12.4178 269.252 10.6193L269.24 5.87103C269.169 -3.82461 269.098 -13.8501 269.094 -23.7137H269.511C269.511 -13.8501 269.586 -3.79972 269.657 5.86481L269.69 10.6006C269.69 12.4053 269.69 14.2474 269.644 16.0334C269.532 23.3145 269.423 30.191 271.84 36.3208C274.412 42.824 280.713 47.5225 286.81 52.1089C295.146 58.332 303.768 64.8103 303.927 76.1924C304.048 84.8114 297.309 91.7938 292.387 96.8843C291.603 97.6996 290.861 98.465 290.215 99.1744C288.823 100.699 287.198 102.286 285.481 103.954C279.313 109.984 272.328 116.798 270.203 125.977C269.111 130.695 269.323 136.868 269.511 142.319C269.586 144.516 269.657 146.588 269.644 148.499V153.048C269.569 162.762 269.515 172.813 269.511 182.701Z" fill="#EF3897" fill-opacity="0.3"/>
<path d="M254.453 182.695H254.036C254.036 176.914 253.886 170.908 253.707 164.555C253.29 149.93 252.873 134.802 254.77 121.565C255.895 113.699 259.717 107.252 263.413 100.948C267.914 93.3122 272.165 86.1058 272.082 76.5596C271.998 67.8161 267.943 62.0348 263.647 55.9112C260.496 51.4181 257.241 46.7694 255.753 40.8761C254.186 34.653 254.299 27.4342 254.407 20.458C254.44 18.087 254.478 15.8467 254.445 13.6562L254.369 7.94955C254.224 -2.41819 254.078 -13.1406 254.036 -23.6951H254.453C254.495 -13.1531 254.64 -2.43063 254.786 7.9371L254.861 13.6437C254.895 15.8467 254.861 18.0933 254.824 20.4892C254.715 27.4093 254.607 34.5659 256.145 40.6708C257.595 46.4396 260.817 51.0323 263.934 55.4756C268.102 61.4187 272.415 67.5671 272.499 76.5658C272.586 86.3548 268.081 93.9905 263.747 101.377C260.087 107.601 256.299 114.01 255.199 121.715C253.315 134.877 253.736 149.961 254.144 164.548C254.307 170.89 254.469 176.901 254.453 182.695Z" fill="#EF3897" fill-opacity="0.3"/>
<path d="M239.392 182.689H238.975C239.025 174.561 239.2 166.285 239.367 158.282C239.654 144.641 239.95 130.545 239.65 116.724C239.525 110.973 239.192 105.13 238.866 99.4794C238.45 92.1049 238.012 84.4754 238.033 76.9578C238.033 70.7969 238.516 64.5863 238.962 58.5809C239.279 54.3679 239.604 50.0055 239.771 45.7053C240.354 30.8196 239.921 15.548 239.504 0.786729C239.279 -7.24733 239.042 -15.549 238.975 -23.6764H239.392C239.458 -15.5863 239.696 -7.25978 239.921 0.768058C240.338 15.548 240.754 30.832 240.188 45.7489C240.021 50.0677 239.692 54.4612 239.379 58.6556C238.929 64.6423 238.466 70.8343 238.45 76.9641C238.429 84.4318 238.866 92.0738 239.283 99.4358C239.608 105.093 239.942 110.942 240.067 116.711C240.367 130.551 240.067 144.659 239.783 158.307C239.617 166.297 239.442 174.568 239.392 182.689Z" fill="#EF3897" fill-opacity="0.3"/>
<path d="M224.33 182.676H223.913C224.021 170.647 224.255 158.406 224.476 146.582L224.617 139.052C224.659 136.799 224.792 134.36 224.934 131.784C225.292 125.256 225.701 117.862 224.571 112.075C223.279 105.46 218.966 100.948 214.79 96.5856C209.86 91.4266 204.763 86.0996 204.875 77.2939C204.98 68.8242 210.014 64.7854 214.878 60.8773C218.466 58.0209 222.217 55.0338 223.913 50.2917C226.159 44.0686 225.638 35.1073 225.163 27.2039C225.022 24.8205 224.892 22.5739 224.842 20.5078C224.778 17.9273 224.715 15.3447 224.651 12.76C224.355 0.82407 224.046 -11.5102 223.9 -23.6702H224.317C224.463 -11.5226 224.771 0.817848 225.067 12.7538C225.131 15.3302 225.195 17.9107 225.259 20.4954C225.309 22.549 225.438 24.7893 225.576 27.1604C226.043 35.1509 226.572 44.2117 224.267 50.5967C222.496 55.5067 218.72 58.5374 215.069 61.4685C210.068 65.47 205.38 69.2412 205.28 77.3499C205.171 85.8134 209.956 90.8168 215.019 96.1126C219.249 100.537 223.625 105.111 224.959 111.938C226.109 117.831 225.701 125.293 225.338 131.852C225.197 134.422 225.063 136.831 225.022 139.09L224.88 146.613C224.671 158.437 224.438 170.653 224.33 182.676Z" fill="#EF3897" fill-opacity="0.3"/>
<path d="M209.272 182.676H208.855C208.985 170.106 209.272 157.342 209.526 144.989C209.588 142.214 209.647 139.434 209.706 136.65C209.747 134.634 209.922 132.169 210.102 129.562C210.589 122.592 211.193 113.917 209.631 108.602C207.484 101.321 200.045 98.1103 192.831 94.9987C184.162 91.2648 175.973 87.7301 176.111 77.6175C176.244 67.7912 184.967 65.109 193.406 62.514C199.599 60.6097 206.001 58.637 208.484 53.8389C211.531 47.9394 210.902 38.2811 210.347 29.7056C210.193 27.3346 210.047 25.0943 209.989 23.0655L209.751 14.5274C209.397 2.01269 209.03 -10.9252 208.855 -23.6639H209.272C209.447 -10.9314 209.814 2.00647 210.168 14.5087L210.406 23.0531C210.464 25.0632 210.606 27.2973 210.76 29.6558C211.323 38.3184 211.96 48.1385 208.814 54.231C206.238 59.2095 200.062 61.12 193.489 63.1363C185.213 65.6815 176.652 68.3139 176.527 77.6424C176.398 87.2758 184.446 90.711 192.948 94.4137C200.245 97.5626 207.788 100.817 210.01 108.366C211.619 113.83 211.01 122.592 210.518 129.637C210.335 132.232 210.164 134.684 210.122 136.681C210.064 139.461 210.004 142.243 209.943 145.026C209.676 157.348 209.401 170.118 209.272 182.676Z" fill="#EF3897" fill-opacity="0.3"/>
<path d="M194.207 182.689H193.79C193.919 169.95 194.207 157.012 194.507 144.504C194.573 141.529 194.641 138.552 194.711 135.574C194.757 133.507 194.953 130.894 195.157 128.106C195.686 121.061 196.34 112.287 194.923 107.096C192.615 98.6455 183.554 96.318 174.79 94.0652C164.662 91.4578 155.098 88.9996 155.248 77.7171C155.39 66.8204 165.667 65.0903 175.598 63.4039C183.187 62.1281 191.018 60.8088 193.811 55.3138C196.699 49.6321 195.982 39.283 195.407 30.9627C195.236 28.4734 195.078 26.1647 195.019 24.1172L194.744 14.9506C194.361 2.27406 193.965 -10.8381 193.794 -23.7573H194.211C194.382 -10.8505 194.777 2.26161 195.161 14.9381C195.253 17.9916 195.343 21.0451 195.432 24.0986C195.494 26.1211 195.653 28.4548 195.824 30.9005C196.403 39.3266 197.128 49.8126 194.157 55.6934C191.273 61.3689 183.688 62.6384 175.657 63.9889C165.9 65.6318 155.81 67.3245 155.677 77.6797C155.535 88.4271 164.929 90.8417 174.873 93.3994C183.746 95.6833 192.927 98.0418 195.319 106.816C196.778 112.15 196.115 121.011 195.586 128.131C195.378 130.881 195.169 133.483 195.14 135.524C195.073 138.507 195.005 141.483 194.936 144.454C194.636 157.025 194.336 169.963 194.207 182.689Z" fill="#EF3897" fill-opacity="0.3"/>
<path d="M179.149 182.676H178.732C178.861 170.106 179.149 157.342 179.407 144.989L179.582 136.65C179.628 134.584 179.824 131.97 180.028 129.182C180.545 122.262 181.187 113.625 179.807 108.565C177.498 100.027 168.259 97.3946 159.319 94.8742C148.988 91.9307 139.227 89.149 139.373 77.8602C139.519 66.9884 149.992 64.7916 160.119 62.7131C167.871 61.1013 175.89 59.4397 178.665 53.8327C181.441 48.2257 180.791 38.0384 180.245 29.8985C180.082 27.4404 179.924 25.1129 179.87 23.0531C179.792 20.207 179.711 17.3631 179.628 14.5212C179.29 2.01269 178.907 -10.9314 178.732 -23.6702H179.149C179.324 -10.9314 179.691 2.00646 180.045 14.515C180.125 17.3569 180.206 20.2008 180.286 23.0469C180.341 25.0756 180.495 27.4031 180.662 29.8425C181.245 38.5176 181.912 48.3563 178.995 54.2123C176.077 60.0683 168.367 61.6365 160.165 63.3354C150.213 65.4015 139.919 67.536 139.782 77.8789C139.64 88.6449 149.234 91.3768 159.369 94.2644C168.417 96.8408 177.773 99.5043 180.166 108.354C181.583 113.587 180.932 122.287 180.412 129.282C180.207 132.033 180.016 134.634 179.97 136.675C179.911 139.455 179.852 142.236 179.791 145.02C179.553 157.348 179.29 170.118 179.149 182.676Z" fill="#EF3897" fill-opacity="0.3"/>
<path d="M164.087 182.676H163.67C163.779 170.635 164.012 158.406 164.233 146.582L164.375 139.114C164.412 137.086 164.591 134.559 164.791 131.889C165.258 125.305 165.837 117.11 164.525 112.162C162.141 103.17 152.522 99.9772 143.22 96.8968C132.443 93.3185 122.261 89.9393 122.382 78.1776C122.503 66.8764 133.414 63.8644 143.966 60.9022C152.034 58.6556 160.374 56.3344 163.237 50.3229C165.996 44.5291 165.437 35.3189 164.941 27.1977C164.8 24.8329 164.666 22.605 164.616 20.5576C164.555 17.9937 164.491 15.4318 164.425 12.8721C164.129 0.917416 163.82 -11.4479 163.674 -23.6204H164.091C164.237 -11.4542 164.545 0.911193 164.841 12.8658C164.905 15.4256 164.969 17.9854 165.033 20.5452C165.079 22.5801 165.216 24.8018 165.358 27.1541C165.858 35.3811 166.425 44.7096 163.579 50.6962C160.615 56.9194 152.568 59.1659 144.045 61.5369C133.655 64.4307 122.915 67.424 122.79 78.2087C122.674 89.4664 132.693 92.7895 143.299 96.3118C152.705 99.4234 162.433 102.659 164.9 111.957C166.25 117.047 165.687 124.982 165.191 131.983C165.004 134.64 164.825 137.154 164.775 139.158L164.633 146.626C164.425 158.412 164.195 170.641 164.087 182.676Z" fill="#EF3897" fill-opacity="0.3"/>
<path d="M149.025 182.689H148.608C148.679 171.406 148.854 159.943 149.025 148.854L149.125 142.27C149.154 140.303 149.309 137.913 149.471 135.424C149.888 128.958 150.371 121.634 149.129 116.848C146.65 107.289 136.026 102.722 128.271 99.3798C126.162 98.4774 124.165 97.6187 122.644 96.7848C121.94 96.3989 121.102 95.9882 120.144 95.509C114.372 92.6775 104.724 87.9355 104.774 78.5385C104.857 66.5652 116.351 62.4144 127.462 58.4067C135.918 55.3511 144.662 52.1836 147.658 45.6306C150.384 39.6564 149.967 31.4108 149.563 23.4327C149.45 21.2484 149.346 19.1885 149.309 17.2096L149.175 10.4513C148.95 -0.750381 148.721 -12.2632 148.625 -23.6328H149.042C149.138 -12.2694 149.367 -0.725489 149.592 10.4388L149.7 17.1411C149.738 19.1263 149.842 21.1862 149.95 23.3643C150.367 31.4543 150.784 39.7995 147.975 45.9542C144.891 52.7188 136.46 55.7619 127.554 58.9855C116.593 62.9434 105.261 67.032 105.182 78.5199C105.124 87.4625 114.601 92.1174 120.265 94.8929C121.24 95.3721 122.082 95.7828 122.79 96.1749C124.299 97.0026 126.287 97.8551 128.391 98.7575C136.231 102.13 146.966 106.748 149.521 116.599C150.801 121.522 150.317 128.927 149.892 135.462C149.729 137.951 149.575 140.334 149.546 142.276L149.446 148.86C149.284 159.943 149.096 171.406 149.025 182.689Z" fill="#EF3897" fill-opacity="0.3"/>
<path d="M133.964 182.695H133.547C133.58 172.203 133.693 161.536 133.797 151.237L133.856 145.599C133.856 143.732 134.006 141.498 134.139 139.146C134.489 133.146 134.881 126.351 133.722 121.758C131.155 111.664 120.002 106.2 111.855 102.211C109.596 101.11 107.462 100.064 105.841 99.0997C105.078 98.633 104.174 98.1352 103.107 97.5502C96.6889 94.0217 86.9868 88.6947 87.0201 78.9306C87.0534 69.1665 96.7598 64.1382 103.182 60.8275C104.232 60.2861 105.141 59.8193 105.903 59.3775C107.708 58.3507 109.896 57.3425 112.209 56.2659C119.444 52.949 128.463 48.7982 132.022 40.7081C134.731 34.5783 134.431 26.843 134.143 19.369C134.068 17.5021 133.993 15.5355 133.968 13.6499L133.864 7.94333C133.722 -2.42441 133.576 -13.1469 133.53 -23.6951H133.947C133.993 -13.1531 134.139 -2.43686 134.281 7.93088L134.36 13.6437C134.385 15.5107 134.46 17.4585 134.531 19.3379C134.827 26.9177 135.131 34.7526 132.347 41.0566C128.684 49.3458 119.602 53.5029 112.309 56.8509C110 57.9088 107.816 58.9108 106.029 59.9625C105.258 60.4043 104.361 60.871 103.29 61.4187C97.3641 64.468 87.4535 69.5834 87.4119 78.9368C87.3702 88.2902 97.2974 93.7105 103.224 96.9839C104.286 97.5688 105.203 98.0729 105.974 98.5397C107.583 99.5229 109.725 100.562 111.959 101.651C120.186 105.684 131.451 111.198 134.089 121.565C135.289 126.289 134.889 133.159 134.539 139.22C134.402 141.566 134.276 143.776 134.256 145.636L134.197 151.274C134.11 161.555 133.997 172.209 133.964 182.695Z" fill="#EF3897" fill-opacity="0.3"/>
<path d="M118.902 182.701H118.485C118.485 172.881 118.543 162.899 118.593 153.247L118.618 148.487C118.618 146.676 118.735 144.578 118.852 142.363C119.135 136.762 119.46 130.408 118.36 126.009C115.726 115.473 104.107 109.206 95.6258 104.669C93.2336 103.387 90.9789 102.18 89.2702 101.048C88.4575 100.512 87.474 99.9212 86.3529 99.2429C79.6847 95.2787 69.645 89.2859 69.6533 79.248C69.6617 69.2101 79.7306 63.323 86.3946 59.4522C87.524 58.8299 88.4992 58.2076 89.3119 57.7097C91.229 56.4651 93.542 55.2578 95.98 53.9758C103.44 50.0553 112.759 45.1203 116.485 36.4826C119.164 30.2595 118.985 23.2522 118.773 15.8343C118.723 14.1291 118.677 12.3742 118.664 10.6193L118.631 5.87103C118.56 -3.82461 118.489 -13.8438 118.485 -23.7075H118.902C118.902 -13.8501 118.977 -3.83083 119.048 5.86481L119.081 10.6068C119.081 12.3493 119.139 14.1042 119.185 15.7969C119.394 23.3269 119.602 30.4337 116.835 36.8124C113.03 45.6306 103.648 50.5718 96.1134 54.5484C93.6712 55.8303 91.3623 57.0376 89.4452 58.2822C88.6117 58.8112 87.6448 59.3837 86.5279 60.0372C80.3682 63.6155 70.0618 69.6083 70.0534 79.2542C70.0451 88.9 80.339 95.0049 86.4904 98.6766C87.6323 99.3549 88.6201 99.9212 89.4369 100.481C91.1331 101.601 93.3836 102.809 95.7675 104.091C104.328 108.696 116.051 114.994 118.752 125.797C119.885 130.327 119.556 136.75 119.264 142.413C119.152 144.622 119.044 146.713 119.035 148.499L119.01 153.26C118.96 162.906 118.906 172.881 118.902 182.701Z" fill="#EF3897" fill-opacity="0.3"/>
<path d="M103.44 182.695C103.44 173.124 103.44 163.553 103.44 153.982V150.329C103.44 148.543 103.54 146.489 103.64 144.311C103.898 138.959 104.186 132.885 103.14 128.641C100.485 117.887 88.5533 111.117 79.8555 106.175C77.2633 104.701 75.0211 103.431 73.2666 102.211C72.4331 101.626 71.3912 100.967 70.1951 100.232C63.3977 95.9819 53.1079 89.5535 53.1079 79.4595C53.1079 69.3656 63.3852 62.9496 70.1951 58.7116C71.387 57.9711 72.4164 57.3301 73.2541 56.7513C75.242 55.376 77.6467 54.0069 80.1931 52.5507C87.849 48.1945 97.372 42.7431 101.16 33.8004C105.415 23.7501 104.599 6.2133 103.878 -9.25741C103.653 -14.5222 103.44 -19.4945 103.44 -23.6951H103.857C103.857 -19.5193 104.086 -14.5533 104.332 -9.30097C105.057 6.25686 105.878 23.9057 101.548 34.1365C97.6887 43.2534 88.0907 48.7297 80.3807 53.1295C77.8426 54.5857 75.4421 55.9548 73.4666 57.3176C72.6331 57.9026 71.587 58.5623 70.3909 59.2904C64.0979 63.2047 53.5622 69.7639 53.5663 79.4595C53.5705 89.1552 64.0937 95.7206 70.3784 99.6598C71.5787 100.407 72.6164 101.054 73.4666 101.645C75.2087 102.852 77.4425 104.134 80.0264 105.59C88.8075 110.569 100.835 117.414 103.557 128.429C104.632 132.786 104.34 138.94 104.082 144.354C103.978 146.52 103.882 148.567 103.882 150.329V153.982C103.882 163.553 103.882 173.124 103.882 182.695H103.44Z" fill="#EF3897" fill-opacity="0.3"/>
<path d="M88.783 182.689H88.3662V150.665C88.3662 148.916 88.4579 146.931 88.5537 144.778C88.7996 139.413 89.0789 133.327 87.9786 129.077C85.2613 118.566 73.6796 111.602 65.2235 106.518C62.748 105.03 60.41 103.624 58.6471 102.342C57.8136 101.72 56.7842 101.06 55.5922 100.276C48.9241 95.8824 38.8135 89.2548 38.8135 79.4969C38.8135 69.739 48.9116 63.1114 55.5922 58.7241C56.7842 57.94 57.8177 57.2616 58.6471 56.658C60.635 55.2142 63.0147 53.7642 65.5403 52.2271C73.3295 47.4851 82.1648 42.1083 85.9615 33.3213C90.2958 23.2958 89.5081 5.75279 88.8121 -9.6868C88.5829 -14.7773 88.3662 -19.5816 88.3662 -23.6702H88.783C88.783 -19.6065 88.9997 -14.8084 89.2289 -9.73036C89.929 5.82747 90.7209 23.4576 86.3116 33.676C82.4482 42.6311 73.5504 48.0452 65.6986 52.8183C63.1981 54.3554 60.8101 55.7992 58.8346 57.2367C58.0011 57.8591 56.9634 58.5249 55.7631 59.3153C49.5825 63.3728 39.2344 70.1684 39.2344 79.5156C39.2344 88.8627 49.5825 95.6646 55.7631 99.7221C56.9634 100.512 57.9969 101.191 58.8346 101.801C60.585 103.045 62.9147 104.477 65.3819 105.958C73.9088 111.086 85.5864 118.111 88.3704 128.871C89.504 133.227 89.2039 139.407 88.9747 144.84C88.8788 146.956 88.7871 148.953 88.7871 150.683L88.783 182.689Z" fill="#EF3897" fill-opacity="0.3"/>
<path d="M73.7212 182.689H73.3044V150.665C73.3044 148.897 73.392 146.931 73.4795 144.809C73.7087 139.475 73.9671 133.433 72.8793 129.07C70.3788 119.113 60.7933 112.268 53.1208 106.76C50.9286 105.192 48.8448 103.711 47.2069 102.33C46.4276 101.676 45.4649 100.936 44.448 100.145C38.6134 95.6335 29.7822 88.8067 29.7822 79.4969C29.7822 70.1871 38.605 63.3665 44.448 58.8548C45.4649 58.0644 46.4276 57.3239 47.2069 56.6642C49.0032 55.1582 51.0786 53.6585 53.2791 52.0653C60.0098 47.1988 67.6407 41.6789 71.0414 33.3275C75.209 23.0531 74.4422 5.73412 73.7545 -9.54367C73.5212 -14.6653 73.3044 -19.538 73.3044 -23.6888H73.7212C73.7212 -19.5567 73.9379 -14.7151 74.1713 -9.58723C74.8631 5.78391 75.6466 23.2024 71.3957 33.6511C67.9324 42.1581 60.2432 47.7216 53.475 52.6254C51.2787 54.2123 49.2074 55.737 47.4237 57.2056C46.636 57.8715 45.6733 58.6121 44.6522 59.4024C38.9009 63.8519 30.2115 70.5667 30.2115 79.4969C30.2115 88.4271 38.9009 95.1481 44.6522 99.5914C45.6733 100.382 46.636 101.128 47.4237 101.788C49.0574 103.157 51.1245 104.638 53.3125 106.2C61.0725 111.751 70.7289 118.647 73.2794 128.853C74.4047 133.339 74.1421 139.432 73.9087 144.846C73.8171 146.943 73.7337 148.916 73.7337 150.665L73.7212 182.689Z" fill="#EF3897" fill-opacity="0.3"/>
<path d="M58.6592 182.689H58.2424V150.665C58.2424 148.76 58.3258 146.694 58.4133 144.497C58.6217 139.357 58.855 133.539 57.9465 129.052C55.9544 119.188 48.4736 112.735 41.2386 106.493C32.9743 99.3611 24.4224 91.9867 24.4224 79.4969C24.4224 67.4178 33.0535 59.67 41.397 52.1711C47.6484 46.5703 54.079 40.7766 56.5504 33.3462C60.122 22.5864 59.3718 5.89592 58.7134 -8.83423C58.4716 -14.2048 58.2424 -19.2766 58.2424 -23.6888H58.6592C58.6592 -19.2953 58.8884 -14.2359 59.1301 -8.87779C59.7928 5.93326 60.5471 22.717 56.9213 33.6262C54.4207 41.2184 47.8984 47.0557 41.6095 52.7063C33.366 60.1118 24.8391 67.7725 24.8391 79.4969C24.8391 91.6258 32.9076 98.5832 41.447 105.958C48.7528 112.255 56.3045 118.777 58.3466 128.871C59.276 133.464 59.0384 139.345 58.83 144.535C58.7425 146.719 58.6592 148.779 58.6592 150.665V182.689Z" fill="#EF3897" fill-opacity="0.3"/>
<path d="M43.5976 182.689H43.1809C43.1809 177.2 43.3851 171.518 43.5976 165.501C44.0436 153.123 44.502 140.316 43.0892 129.021C41.9139 119.63 36.8378 112.735 31.9117 106.063C26.3771 98.5583 20.6592 90.7919 20.6592 79.4969C20.6592 68.3886 26.3521 60.5288 31.8575 52.9303C36.1251 47.037 40.5386 40.9384 42.2473 33.3897C44.8646 21.8085 44.2186 6.21952 43.6518 -7.52737C43.4101 -13.2838 43.185 -18.729 43.185 -23.7075H43.6018C43.6018 -18.729 43.8268 -13.3273 44.0644 -7.58338C44.6395 6.21952 45.2855 21.8707 42.6433 33.5702C40.9012 41.2744 36.446 47.4229 32.1367 53.3722C26.698 60.8773 21.0759 68.6437 21.0759 79.5093C21.0759 90.5305 26.4938 97.8551 32.1993 105.615C37.1712 112.355 42.3057 119.306 43.5059 128.921C44.9313 140.291 44.4687 153.129 44.0227 165.55C43.8018 171.543 43.5976 177.212 43.5976 182.689Z" fill="#EF3897" fill-opacity="0.3"/>
<path d="M28.5402 182.689H28.1234C28.1234 176.553 28.2234 170.243 28.3235 164.15C28.511 152.556 28.7027 140.564 28.2151 128.983C27.8484 120.271 25.0477 112.654 22.3346 105.335C19.4173 97.4071 16.3833 89.205 16.3833 79.5218C16.3833 69.8386 19.3756 61.7485 22.2721 53.9012C24.631 47.4789 27.069 40.8637 27.8817 33.4395C29.257 21.0368 28.8402 7.3957 28.4693 -5.79734C28.2901 -12.0205 28.1234 -17.8951 28.1234 -23.6888H28.5402C28.5402 -17.9076 28.7069 -12.0391 28.8861 -5.82846C29.257 7.3957 29.6738 21.0741 28.2943 33.5391C27.4608 41.0691 25.0144 47.734 22.6347 54.175C19.7674 61.9601 16.8001 70.0004 16.8001 79.4969C16.8001 88.9934 19.8007 97.1519 22.7014 105.012C25.4353 112.417 28.2568 120.072 28.6319 128.946C29.1195 140.552 28.9278 152.556 28.7402 164.163C28.6402 170.255 28.5402 176.559 28.5402 182.689Z" fill="#EF3897" fill-opacity="0.3"/>
<path d="M13.4782 182.689H13.0615C13.0615 164.922 13.1365 147.136 13.2198 128.958C13.2573 120.526 12.303 112.156 11.3778 104.066C10.4692 96.0878 9.52734 87.8421 9.52734 79.4844C9.52734 71.245 10.4734 63.1549 11.3903 55.3263C12.2238 48.2194 13.0573 40.8699 13.2198 33.4644C13.4449 21.5222 13.324 9.3062 13.2198 -2.5053C13.149 -9.46276 13.0781 -16.6505 13.0781 -23.7013H13.4949C13.4949 -16.6567 13.5657 -9.46899 13.6366 -2.54264C13.7575 9.28131 13.8783 21.4973 13.6366 33.4582C13.4949 40.9259 12.6322 48.2817 11.7987 55.4071C10.886 63.211 9.9441 71.2761 9.9441 79.4596C9.9441 87.7674 10.8818 95.9882 11.7903 103.935C12.7156 112.025 13.6741 120.439 13.6366 128.927C13.5532 147.136 13.4782 164.922 13.4782 182.689Z" fill="#EF3897" fill-opacity="0.3"/>
<path d="M194.807 10.8495C178.386 10.8495 161.82 8.21093 145.8 5.65322C132.33 3.51246 118.398 1.29703 104.628 0.674717C80.456 -0.445446 55.7922 -0.128068 31.9452 0.170643C20.8844 0.313775 9.44017 0.456906 -1.7915 0.456906V-0.165407C9.46101 -0.165407 20.8802 -0.308539 31.941 -0.451671C55.7922 -0.750381 80.4519 -1.07398 104.641 0.0524039C118.427 0.674717 132.363 2.91504 145.841 5.03091C161.853 7.58862 178.407 10.2272 194.807 10.2272C210.964 10.2272 227.28 7.58239 243.055 5.02468C257.012 2.75946 271.449 0.419568 285.735 -0.0845057C309.182 -0.912182 333.058 -0.663257 356.168 -0.420555C367.199 -0.308539 378.606 -0.1903 389.813 -0.1903V0.432013C378.606 0.432013 367.199 0.313774 356.168 0.201758C333.079 -0.0409444 309.203 -0.289869 285.769 0.537807C271.494 1.04188 257.07 3.38178 243.117 5.64078C227.314 8.19848 210.989 10.8495 194.807 10.8495Z" fill="#EF3897" fill-opacity="0.3"/>
<path d="M195.186 23.999C178.34 23.999 161.449 20.0411 145.116 16.2076C131.888 13.0961 118.214 9.90362 104.645 8.82079C80.4018 6.8854 55.5505 7.40192 31.5201 7.90599C20.5843 8.13625 9.27763 8.36028 -1.7915 8.36028V7.73797C9.27763 7.73797 20.5802 7.50149 31.5159 7.27123C55.5546 6.76716 80.4102 6.25064 104.666 8.18603C118.256 9.27508 131.943 12.48 145.179 15.5853C161.499 19.4063 178.374 23.3642 195.19 23.3642H195.211C211.66 23.3642 228.135 19.3939 244.097 15.5604C257.696 12.2933 271.757 8.90791 285.748 7.99311C309.261 6.44355 333.304 6.89162 356.555 7.32724C367.462 7.52638 378.739 7.73797 389.796 7.73797V8.36028C378.739 8.36028 367.458 8.14869 356.551 7.94955C333.304 7.51393 309.27 7.06587 285.764 8.60921C271.811 9.54267 257.746 12.9218 244.159 16.189C228.197 20.0224 211.689 23.9928 195.207 23.999H195.186Z" fill="#EF3897" fill-opacity="0.3"/>
<path d="M195.544 36.3644C178.457 36.3644 161.462 31.2925 145.025 26.4074C131.851 22.4619 118.231 18.3857 104.653 16.9544C80.456 14.4029 55.513 15.0875 31.3909 15.7098C20.4885 16.0085 9.21512 16.3321 -1.7915 16.3321V15.7098C9.21095 15.7098 20.4843 15.4049 31.3826 15.0875C55.5171 14.4652 80.4685 13.7557 104.682 16.3321C118.285 17.7696 131.922 21.8458 145.108 25.7975C161.52 30.6764 178.495 35.7421 195.544 35.7421C212.09 35.7421 228.543 30.6453 244.451 25.7166C257.904 21.5533 271.811 17.2469 285.739 16.0209C309.224 13.9611 333.337 14.5834 356.655 15.1435C367.537 15.4111 378.789 15.6849 389.792 15.6849V16.3072C378.785 16.3072 367.533 16.0334 356.647 15.7658C333.337 15.2057 309.232 14.5834 285.773 16.6619C271.874 17.9066 257.979 22.1881 244.547 26.3451C228.614 31.2738 212.144 36.3644 195.544 36.3644Z" fill="#EF3897" fill-opacity="0.3"/>
<path d="M195.736 47.0184C178.649 47.0184 161.778 41.2495 145.458 35.6674C132.172 31.1245 118.444 26.4074 104.653 24.864C80.5352 22.1383 55.613 22.8788 31.5118 23.6194C20.5635 23.9181 9.25263 24.2479 -1.7915 24.2479V23.6256C9.24013 23.6256 20.5552 23.2896 31.5034 22.966C55.613 22.2565 80.5435 21.516 104.682 24.2106C118.494 25.785 132.247 30.5084 145.533 35.0575C161.828 40.6583 178.682 46.3961 195.719 46.3961H195.744C212.227 46.3961 228.464 40.6148 244.168 35.0326C257.671 30.2284 271.636 25.2623 285.731 23.9617C309.153 21.8085 333.242 22.437 356.522 23.0469C367.445 23.3269 378.739 23.6256 389.775 23.6256V24.2479C378.735 24.2479 367.441 23.9492 356.513 23.6692C333.233 23.0469 309.161 22.4246 285.756 24.584C271.699 25.8784 257.75 30.8382 244.263 35.6363C228.539 41.2371 212.277 47.0121 195.744 47.0184H195.736Z" fill="#EF3897" fill-opacity="0.3"/>
<path d="M194.961 54.8595C177.828 54.8595 160.882 49.1156 144.495 43.5521C131.201 39.0465 117.452 34.3792 103.686 32.811C79.7808 30.0915 55.067 30.8258 31.17 31.529C20.3342 31.8526 9.13173 32.1513 -1.7832 32.1513V31.529C9.12757 31.529 20.3301 31.1992 31.1617 30.9067C55.0712 30.2035 79.7933 29.4691 103.72 32.1949C117.514 33.7631 131.276 38.418 144.587 42.9484C160.953 48.4995 177.874 54.2372 194.961 54.2372H195.007C211.814 54.2372 228.447 48.4621 244.53 42.88C258.283 38.1006 272.532 33.1595 286.852 31.8339C309.716 29.7181 333.212 30.3528 355.938 30.9689C367.057 31.2739 378.556 31.5912 389.783 31.5912V32.2135C378.531 32.2135 367.045 31.9211 355.926 31.5912C333.208 30.9689 309.72 30.3466 286.873 32.4562C272.591 33.7818 258.371 38.6794 244.618 43.4836C228.514 49.0845 211.86 54.8533 195.023 54.8595H194.961Z" fill="#EF3897" fill-opacity="0.3"/>
<path d="M190.076 59.8007C172.681 59.8007 155.31 54.8222 138.506 49.9806C125.141 46.1409 111.321 42.1705 97.5806 40.733C74.9298 38.3744 51.5787 38.9905 28.9945 39.5817C18.8839 39.8493 8.41907 40.0982 -1.7832 40.0982V39.4759C8.42324 39.4759 18.8756 39.2021 28.9862 38.9345C51.5787 38.3122 74.9381 37.7272 97.6098 40.092C111.363 41.5233 125.208 45.4999 138.586 49.3458C155.364 54.1625 172.722 59.1535 190.076 59.1535H190.126C208.935 59.1535 227.81 54.0069 246.068 49.0409C261.242 44.9087 276.929 40.6397 292.516 39.3266C313.604 37.609 335.246 38.2313 356.176 38.8536C367.207 39.1834 378.627 39.5195 389.783 39.4759V40.0982C378.606 40.0982 367.203 39.7809 356.168 39.4448C335.242 38.8225 313.612 38.2002 292.52 39.9489C276.958 41.262 261.263 45.5497 246.122 49.6507C227.847 54.6293 208.951 59.7696 190.105 59.7758L190.076 59.8007Z" fill="#EF3897" fill-opacity="0.3"/>
<path d="M182.237 62.8936H182.208C164.6 62.8936 146.883 59.1597 129.75 55.4881C115.997 52.5694 101.781 49.5512 87.7073 48.4933C67.1653 46.9499 46.1314 47.342 25.7894 47.7216C16.7415 47.8834 7.38525 48.0576 -1.7793 48.0576V47.4353C7.38942 47.4353 16.7373 47.2673 25.781 47.0993C46.1314 46.7197 67.1736 46.3276 87.7282 47.8709C101.823 48.9289 116.068 51.9533 129.821 54.872C146.941 58.5063 164.641 62.2651 182.22 62.2713H182.258C204.125 62.2713 226.242 58.1702 247.635 54.1812C265.193 50.9203 283.347 47.5598 301.276 46.4707C319.697 45.363 338.492 46.0102 356.672 46.6388C367.545 47.0184 378.785 47.4042 389.808 47.4104V48.0327C378.776 48.0327 367.536 47.6407 356.663 47.2611C338.492 46.6388 319.701 46.0165 301.293 47.0931C283.372 48.1759 265.234 51.5426 247.685 54.7973C226.259 58.7677 204.129 62.8936 182.237 62.8936Z" fill="#EF3897" fill-opacity="0.3"/>
<path d="M172.81 65.2024C155.239 65.2024 137.469 62.8687 120.298 60.6097C105.87 58.7116 90.95 56.7513 76.23 56.1788C58.3093 55.4881 40.0719 55.6685 22.4263 55.8365C14.5079 55.9174 6.2894 55.9984 -1.7749 55.9984V55.376C6.28523 55.376 14.4787 55.2951 22.4222 55.2142C40.0719 55.0462 58.3218 54.8657 76.2383 55.5565C90.975 56.129 105.899 58.0893 120.336 59.9874C137.515 62.2464 155.281 64.58 172.847 64.58H173.052C197.928 64.58 223.167 61.705 247.577 58.9481C268.473 56.5833 290.086 54.1439 311.374 53.4842C326.532 53.0175 341.935 53.6958 356.834 54.3554C367.67 54.8284 378.835 55.3263 389.833 55.376V55.9984C378.831 55.9486 367.645 55.4507 356.826 54.9778C341.931 54.3181 326.532 53.6398 311.399 54.1065C290.119 54.7662 268.519 57.2181 247.635 59.5642C223.217 62.3273 197.97 65.165 173.077 65.2024H172.81Z" fill="#EF3897" fill-opacity="0.3"/>
<path d="M162.762 67.7912C146.037 67.7912 129.088 66.7955 112.676 65.8371C97.1473 64.9285 81.0895 63.9702 65.2818 63.8893C51.037 63.8084 36.5546 63.8457 22.5515 63.8893C14.433 63.9142 6.3159 63.9287 -1.7998 63.9328V63.3105C6.3159 63.3105 14.433 63.296 22.5515 63.267C36.5546 63.2234 51.0412 63.1861 65.2818 63.267C81.0979 63.3665 97.1598 64.3062 112.692 65.2148C129.592 66.2043 147.063 67.2186 164.275 67.1626C191.006 67.0693 218.166 65.4264 244.43 63.8333C269.507 62.321 295.433 60.7217 320.956 60.5288C333.258 60.423 345.74 61.1511 357.814 61.9228C368.291 62.5451 379.127 63.2234 389.8 63.3105V63.9328C379.119 63.8457 368.279 63.1798 357.797 62.5388C345.711 61.8045 333.258 61.0453 320.96 61.1511C295.442 61.3689 269.519 62.9371 244.447 64.4556C218.191 66.0487 191.014 67.6916 164.275 67.785L162.762 67.7912Z" fill="#EF3897" fill-opacity="0.3"/>
<path d="M68.5698 71.8922H33.562H-1.7959V71.2699H33.562C74.2544 71.2699 116.335 71.3072 157.719 71.0894C184.291 70.9525 211.31 70.2058 237.437 69.4776C267.227 68.65 298.025 67.7849 328.324 67.8472C338.905 67.8472 349.608 68.7246 359.96 69.5585C369.729 70.3427 379.831 71.1579 389.808 71.2575V71.8798C379.806 71.7802 369.716 70.965 359.943 70.1809C349.595 69.347 338.897 68.4819 328.324 68.4695C298.046 68.4197 267.235 69.2723 237.449 70.1C211.318 70.8281 184.3 71.5748 157.723 71.7117C128.1 71.8362 98.1306 71.8922 68.5698 71.8922Z" fill="#EF3897" fill-opacity="0.3"/>
<path d="M389.792 79.808C380.381 79.7396 370.879 78.8746 361.694 78.0344C351.871 77.1383 341.689 76.2048 331.637 76.2546C303.439 76.3915 274.77 76.7649 247.035 77.1259C216.886 77.5179 185.713 77.9224 155.052 78.022C130.334 78.1029 105.207 78.5136 80.9059 78.9057C53.7957 79.3537 25.7686 79.808 -1.8042 79.808V79.1857C25.7645 79.1857 53.7957 78.7314 80.8976 78.2834C105.203 77.8913 130.329 77.4806 155.047 77.3997C185.708 77.3001 216.882 76.8956 247.031 76.5036C274.753 76.1426 303.426 75.7692 331.633 75.6323C341.731 75.595 351.883 76.516 361.714 77.4121C370.883 78.2523 380.389 79.1173 389.787 79.1857L389.792 79.808Z" fill="#EF3897" fill-opacity="0.3"/>
<path d="M-1.7998 87.7488V87.1264C25.5646 87.1264 53.375 86.3299 80.2685 85.5644C105.637 84.8425 131.876 84.0895 157.686 84.0086C180.099 83.9402 202.888 84.0086 224.93 84.0771C258.817 84.1829 293.858 84.2949 328.32 83.8966C339.318 83.7597 350.408 84.6496 361.165 85.5084C370.537 86.2552 380.227 87.0269 389.804 87.1264V87.7488C380.219 87.6492 370.521 86.8775 361.144 86.1307C350.408 85.2719 339.31 84.382 328.324 84.5189C293.866 84.9172 258.821 84.8052 224.93 84.6994C202.892 84.6372 180.103 84.5625 157.69 84.631C131.884 84.7119 105.649 85.4649 80.281 86.1867C53.3792 86.9522 25.5688 87.7488 -1.7998 87.7488Z" fill="#EF3897" fill-opacity="0.3"/>
<path d="M41.4057 95.8451C34.1499 95.8451 26.9316 95.8077 19.8259 95.7641C12.7201 95.7206 5.40597 95.6833 -1.7998 95.6833V95.0609C5.40597 95.0609 12.7368 95.1045 19.8259 95.1418C34.7292 95.229 50.1368 95.3161 65.2777 95.0236C80.952 94.7249 96.8597 93.2811 112.242 91.912C129.246 90.3749 146.833 88.8005 164.175 88.7196C204.684 88.5702 245.86 90.2816 285.706 91.9307C319.826 93.3433 355.109 94.7996 389.8 95.092V95.7144C355.105 95.4219 319.818 93.9657 285.698 92.553C245.868 90.9039 204.696 89.1987 164.175 89.3419C146.842 89.3979 129.267 90.991 112.267 92.5343C96.8806 93.9345 80.9687 95.3721 65.2818 95.6459C57.3592 95.7953 49.3616 95.8451 41.4057 95.8451Z" fill="#EF3897" fill-opacity="0.3"/>
<path d="M46.4274 103.991C38.3297 103.991 30.2696 103.898 22.3303 103.811C14.391 103.724 6.23923 103.624 -1.7959 103.624V103.002C6.23923 103.002 14.4244 103.095 22.3345 103.188C40.0093 103.387 58.28 103.599 76.2007 102.778C90.9665 102.099 105.916 99.8279 120.377 97.6311C137.527 95.0298 155.264 92.3352 172.822 92.2792C197.874 92.2108 223.325 94.4697 247.931 96.6354C268.71 98.5023 290.198 100.407 311.353 100.898C321.189 101.128 331.191 101.465 340.868 101.794C356.909 102.336 373.496 102.902 389.804 102.977V103.599C373.492 103.524 356.905 102.977 340.864 102.417C331.187 102.087 321.185 101.751 311.349 101.521C290.186 101.029 268.694 99.1122 247.91 97.2577C223.321 95.0672 197.861 92.8019 172.826 92.9015C155.289 92.9575 137.564 95.6459 120.423 98.2534C105.962 100.45 91.0082 102.722 76.2257 103.4C66.3485 103.854 56.3463 103.991 46.4274 103.991Z" fill="#EF3897" fill-opacity="0.3"/>
<path d="M53.4997 112.287C44.2102 112.287 34.9539 112.112 25.8311 111.938C16.7082 111.764 7.39362 111.59 -1.7876 111.59V110.967C7.38112 110.967 16.7707 111.148 25.8394 111.316C46.1606 111.702 67.1778 112.1 87.6907 110.544C101.794 109.474 116.03 106.337 129.783 103.313C146.796 99.5789 164.374 95.6957 181.878 95.6833H182.07C204.046 95.6833 226.297 99.2927 247.818 102.79C265.322 105.634 283.409 108.571 301.243 109.548C327.419 110.98 354.171 110.973 380.01 110.967H389.766V111.59H380.031C354.192 111.59 327.432 111.59 301.263 110.171C283.414 109.187 265.314 106.25 247.81 103.406C226.297 99.915 204.05 96.3056 182.103 96.3056H181.912C164.441 96.3056 146.862 100.189 129.867 103.929C116.093 106.96 101.848 110.09 87.7241 111.166C76.3924 111.994 64.9231 112.287 53.4997 112.287Z" fill="#EF3897" fill-opacity="0.3"/>
<path d="M60.0595 120.545C49.6406 120.545 39.2757 120.283 29.0526 120.022C18.9212 119.767 8.44802 119.499 -1.7876 119.499V118.877C8.44802 118.877 18.9254 119.144 29.0526 119.4C51.6035 119.972 74.917 120.563 97.5637 118.304C111.288 116.929 125.07 113.021 138.431 109.243C155.077 104.533 172.289 99.6536 189.522 99.6536H189.709C208.622 99.6972 227.634 104.458 246.014 109.057C261.213 112.865 276.925 116.798 292.499 118.043C315.858 119.91 339.834 119.537 363.019 119.176C371.8 119.032 380.881 118.896 389.771 118.877V119.499C380.885 119.499 371.804 119.655 363.023 119.798C339.83 120.159 315.85 120.532 292.478 118.665C276.883 117.421 261.154 113.481 245.943 109.673C227.576 105.074 208.584 100.338 189.709 100.276H189.518C172.322 100.276 155.131 105.149 138.506 109.853C125.162 113.637 111.358 117.551 97.6054 118.92C85.2068 120.159 72.5998 120.545 60.0595 120.545Z" fill="#EF3897" fill-opacity="0.3"/>
<path d="M64.4399 128.678C53.2916 128.678 42.1641 128.367 31.2075 128.056C20.3717 127.751 9.1484 127.434 -1.7832 127.434V126.811C9.15257 126.811 20.3676 127.129 31.2158 127.434C55.0837 128.112 79.7642 128.809 103.674 126.226C117.385 124.751 131.088 120.277 144.337 115.952C160.591 110.644 177.419 105.155 194.398 105.155H194.569C211.464 105.192 228.21 110.662 244.409 115.958C258.237 120.476 272.541 125.15 286.869 126.419C310.399 128.498 334.592 127.913 357.989 127.347C368.433 127.091 379.244 126.83 389.783 126.811V127.434C379.231 127.434 368.433 127.714 357.993 127.969C334.588 128.535 310.386 129.12 286.84 127.042C272.478 125.766 258.158 121.092 244.33 116.568C228.156 111.278 211.431 105.814 194.577 105.777H194.411C177.478 105.777 160.682 111.26 144.441 116.562C131.176 120.887 117.456 125.368 103.72 126.849C90.7541 128.243 77.6012 128.678 64.4399 128.678Z" fill="#EF3897" fill-opacity="0.3"/>
<path d="M65.0651 136.631C53.8126 136.631 42.5809 136.314 31.5201 136.009C20.5718 135.698 9.24846 135.387 -1.7915 135.387V134.765C9.25263 134.765 20.576 135.082 31.5243 135.387C55.6088 136.065 80.5102 136.775 104.641 134.142C118.348 132.667 132.038 128.187 145.279 123.855C161.532 118.541 178.328 113.046 195.29 113.046C211.869 113.046 228.214 118.559 244.051 123.886C257.616 128.454 271.64 133.178 285.727 134.41C309.149 136.463 333.212 135.866 356.484 135.287C367.408 135.013 378.706 134.733 389.754 134.733V135.356C378.71 135.356 367.416 135.636 356.488 135.91C333.212 136.488 309.14 137.086 285.702 135.032C271.57 133.787 257.529 129.064 243.947 124.496C228.147 119.176 211.81 113.674 195.282 113.668C178.353 113.668 161.578 119.157 145.354 124.465C132.097 128.821 118.394 133.283 104.653 134.765C91.6085 136.19 78.3222 136.631 65.0651 136.631Z" fill="#EF3897" fill-opacity="0.3"/>
<path d="M64.7734 144.466C53.575 144.466 42.4017 144.174 31.3992 143.888C20.4926 143.601 9.21929 143.309 -1.7915 143.309V142.687C9.22345 142.687 20.501 142.979 31.4034 143.265C55.5088 143.888 80.4352 144.541 104.641 142.108C118.16 140.745 131.73 136.862 144.87 133.103C161.241 128.417 178.165 123.575 195.144 123.575C211.777 123.575 228.335 128.436 244.347 133.134C257.846 137.092 271.807 141.187 285.743 142.351C309.22 144.317 333.317 143.757 356.618 143.209C367.503 142.954 378.76 142.687 389.771 142.687V143.309C378.76 143.309 367.508 143.576 356.626 143.832C333.317 144.379 309.211 144.939 285.723 142.973C271.753 141.803 257.8 137.708 244.268 133.744C228.276 129.052 211.739 124.198 195.144 124.198C178.207 124.198 161.299 129.033 144.95 133.713C131.805 137.447 118.214 141.361 104.67 142.724C91.5001 144.025 78.118 144.466 64.7734 144.466Z" fill="#EF3897" fill-opacity="0.3"/>
<path d="M64.9067 152.115C53.6959 152.115 42.5267 151.897 31.5243 151.673C20.5885 151.492 9.2818 151.25 -1.7915 151.25V150.627C9.28597 150.627 20.5927 150.851 31.5493 151.069C55.5713 151.548 80.406 152.046 104.657 150.198C118.181 149.165 131.822 146.116 145.012 143.16C161.295 139.513 178.136 135.748 194.911 135.748C211.431 135.748 228.001 139.531 244.03 143.184C257.662 146.296 271.761 149.513 285.76 150.385C309.27 151.853 333.304 151.43 356.543 151.007C367.453 150.814 378.735 150.615 389.796 150.615V151.237C378.735 151.237 367.458 151.436 356.547 151.629C333.304 152.04 309.265 152.463 285.744 151.007C271.72 150.129 257.608 146.912 243.963 143.801C227.956 140.148 211.402 136.37 194.911 136.37C178.165 136.37 161.345 140.135 145.075 143.776C131.872 146.732 118.223 149.787 104.678 150.82C91.5043 151.822 78.1763 152.115 64.9067 152.115Z" fill="#EF3897" fill-opacity="0.3"/>
</g>
<rect x="-11" y="55" width="407" height="130" fill="url(#paint0_linear_787_1003)"/>
<g clip-path="url(#clip2_787_1003)">
<path d="M421.03 64.3884C427.322 73.2878 430.045 84.2248 428.659 95.0353C427.273 105.846 421.879 115.742 413.545 122.767C405.211 129.792 394.543 133.433 383.653 132.97C372.762 132.507 362.442 127.973 354.735 120.267C347.027 112.56 342.493 102.241 342.03 91.3521C341.567 80.4629 345.208 69.7966 352.234 61.4634C359.26 53.1302 369.157 47.7373 379.969 46.3515C390.781 44.9658 401.719 47.6882 410.62 53.9801C403.705 49.6258 395.428 47.9719 387.371 49.3343C379.314 50.6966 372.041 54.9799 366.943 61.3654C361.844 67.7509 359.278 75.7909 359.734 83.9489C360.19 92.1069 363.637 99.8108 369.415 105.588C375.193 111.366 382.898 114.812 391.057 115.268C399.216 115.724 407.257 113.158 413.643 108.06C420.03 102.963 424.313 95.6909 425.676 87.6345C427.038 79.5782 425.384 71.3023 421.03 64.3884Z" fill="#315F9B"/>
</g>
<g clip-path="url(#clip3_787_1003)">
<path d="M320.39 31.8204C317.713 35.6052 316.556 40.2565 317.145 44.8541C317.734 49.4517 320.028 53.6606 323.573 56.6481C327.117 59.6356 331.654 61.1841 336.285 60.9872C340.917 60.7903 345.306 58.8623 348.584 55.5847C351.862 52.3071 353.79 47.9187 353.987 43.2877C354.184 38.6566 352.635 34.1204 349.648 30.5764C346.66 27.0324 342.45 24.7388 337.852 24.1495C333.254 23.5602 328.602 24.718 324.817 27.3938C327.758 25.542 331.278 24.8386 334.704 25.418C338.131 25.9974 341.224 27.819 343.392 30.5347C345.56 33.2504 346.652 36.6697 346.458 40.1392C346.264 43.6087 344.798 46.8851 342.341 49.3422C339.883 51.7993 336.607 53.2649 333.137 53.4588C329.667 53.6528 326.247 52.5615 323.531 50.3935C320.815 48.2255 318.993 45.1329 318.414 41.7066C317.834 38.2804 318.538 34.7607 320.39 31.8204Z" fill="#E44397"/>
<path d="M324.612 27.5076C324.071 28.0515 323.767 28.7875 323.767 29.5548C323.767 30.322 324.071 31.0581 324.612 31.602C324.068 31.0597 323.332 30.7551 322.564 30.7551C321.797 30.7551 321.06 31.0597 320.517 31.602C321.058 31.0581 321.362 30.322 321.362 29.5548C321.362 28.7875 321.058 28.0515 320.517 27.5076C321.06 28.0498 321.797 28.3544 322.564 28.3544C323.332 28.3544 324.068 28.0498 324.612 27.5076Z" fill="#E44397"/>
</g>
</g>
<defs>
<linearGradient id="paint0_linear_787_1003" x1="192" y1="62.9268" x2="192" y2="119.404" gradientUnits="userSpaceOnUse">
<stop stop-color="#FDFEF0" stop-opacity="0"/>
<stop offset="1" stop-color="#FDFEF0"/>
</linearGradient>
<clipPath id="clip0_787_1003">
<rect width="390" height="136" fill="white"/>
</clipPath>
<clipPath id="clip1_787_1003">
<rect width="392" height="207" fill="white" transform="translate(-2 -24)"/>
</clipPath>
<clipPath id="clip2_787_1003">
<rect width="87" height="87" fill="white" transform="translate(342 46)"/>
</clipPath>
<clipPath id="clip3_787_1003">
<rect width="37" height="37" fill="white" transform="matrix(-1 0 0 1 354 24)"/>
</clipPath>
</defs>
</svg>
