<svg width="31" height="31" viewBox="0 0 31 31" fill="none" xmlns="http://www.w3.org/2000/svg">
<g clip-path="url(#clip0_1059_1147)">
<path d="M6.93833 6.93787C6.37064 6.93787 5.8262 7.16338 5.42478 7.5648C5.02337 7.96621 4.79785 8.51065 4.79785 9.07834V13.3593C5.36554 13.3593 5.90998 13.5848 6.3114 13.9862C6.71281 14.3876 6.93833 14.9321 6.93833 15.4998C6.93833 16.0675 6.71281 16.6119 6.3114 17.0133C5.90998 17.4147 5.36554 17.6402 4.79785 17.6402V21.9212C4.79785 22.4889 5.02337 23.0333 5.42478 23.4347C5.8262 23.8362 6.37064 24.0617 6.93833 24.0617H24.0621C24.6298 24.0617 25.1743 23.8362 25.5757 23.4347C25.9771 23.0333 26.2026 22.4889 26.2026 21.9212V17.6402C25.6349 17.6402 25.0905 17.4147 24.6891 17.0133C24.2877 16.6119 24.0621 16.0675 24.0621 15.4998C24.0621 14.9321 24.2877 14.3876 24.6891 13.9862C25.0905 13.5848 25.6349 13.3593 26.2026 13.3593V9.07834C26.2026 8.51065 25.9771 7.96621 25.5757 7.5648C25.1743 7.16338 24.6298 6.93787 24.0621 6.93787H6.93833ZM19.2461 10.1486L20.8514 11.7539L11.7544 20.851L10.149 19.2456L19.2461 10.1486ZM12.0862 10.1914C13.135 10.1914 13.9805 11.0369 13.9805 12.0857C13.9805 12.5881 13.7809 13.0699 13.4257 13.4252C13.0704 13.7805 12.5886 13.98 12.0862 13.98C11.0373 13.98 10.1919 13.1345 10.1919 12.0857C10.1919 11.5833 10.3914 11.1015 10.7467 10.7462C11.1019 10.391 11.5838 10.1914 12.0862 10.1914ZM18.9143 17.0195C19.9631 17.0195 20.8086 17.865 20.8086 18.9138C20.8086 19.4162 20.609 19.8981 20.2538 20.2533C19.8985 20.6086 19.4167 20.8082 18.9143 20.8082C17.8655 20.8082 17.02 19.9627 17.02 18.9138C17.02 18.4114 17.2196 17.9296 17.5748 17.5743C17.9301 17.2191 18.4119 17.0195 18.9143 17.0195Z" fill="black"/>
</g>
<defs>
<clipPath id="clip0_1059_1147">
<rect width="31" height="31" fill="white"/>
</clipPath>
</defs>
</svg>
