<svg width="27" height="27" viewBox="0 0 27 27" fill="none" xmlns="http://www.w3.org/2000/svg">
<path d="M25.4001 2.98264L23.6679 2.18727V15.0126L26.8092 6.68964C27.3392 5.24093 26.7316 3.57917 25.4001 2.98264ZM0.191778 8.23777L6.60375 25.2104C6.79255 25.7268 7.11462 26.1713 7.53033 26.4893C7.94604 26.8072 8.43727 26.9847 8.9436 27C9.27971 27 9.62875 26.929 9.96486 26.7728L19.4923 22.4408C20.4619 22.0005 21.0565 20.9495 21.0824 19.8985C21.0953 19.5292 21.0307 19.1173 20.9143 18.748L14.4507 1.77538C14.2679 1.25558 13.947 0.80824 13.5297 0.491591C13.1124 0.174942 12.618 0.00364697 12.1108 0C11.7747 0 11.4386 0.0852184 11.1154 0.213046L1.60086 4.54498C0.968405 4.82953 0.464689 5.37838 0.200456 6.07086C-0.0637783 6.76334 -0.0668996 7.54276 0.191778 8.23777ZM21.0695 2.84061C21.0695 2.08723 20.7971 1.36471 20.3122 0.831995C19.8273 0.299278 19.1697 0 18.484 0H16.6095L21.0695 11.8453" fill="black"/>
</svg>
